<?xml version="1.0" encoding="UTF-8" standalone="no"?>
<!-- Created with Inkscape (http://www.inkscape.org/) -->

<svg
   xmlns:dc="http://purl.org/dc/elements/1.1/"
   xmlns:cc="http://creativecommons.org/ns#"
   xmlns:rdf="http://www.w3.org/1999/02/22-rdf-syntax-ns#"
   xmlns:svg="http://www.w3.org/2000/svg"
   xmlns="http://www.w3.org/2000/svg"
   xmlns:xlink="http://www.w3.org/1999/xlink"
   xmlns:sodipodi="http://sodipodi.sourceforge.net/DTD/sodipodi-0.dtd"
   xmlns:inkscape="http://www.inkscape.org/namespaces/inkscape"
   width="744.09448819"
   height="1052.3622047"
   id="svg2"
   sodipodi:version="0.32"
   inkscape:version="0.48.1 r9760"
   sodipodi:docname="moa-vector.svg"
   inkscape:output_extension="org.inkscape.output.svg.inkscape"
   version="1.1">
  <defs
     id="defs4" />
  <sodipodi:namedview
     id="base"
     pagecolor="#ffffff"
     bordercolor="#666666"
     borderopacity="1.0"
     gridtolerance="10000"
     guidetolerance="10"
     objecttolerance="10"
     inkscape:pageopacity="0.0"
     inkscape:pageshadow="2"
     inkscape:zoom="0.49497475"
     inkscape:cx="129.32346"
     inkscape:cy="483.64835"
     inkscape:document-units="px"
     inkscape:current-layer="layer1"
     inkscape:window-width="1280"
     inkscape:window-height="904"
     inkscape:window-x="0"
     inkscape:window-y="0"
     showgrid="false"
     inkscape:window-maximized="0" />
  <metadata
     id="metadata7">
    <rdf:RDF>
      <cc:Work
         rdf:about="">
        <dc:format>image/svg+xml</dc:format>
        <dc:type
           rdf:resource="http://purl.org/dc/dcmitype/StillImage" />
      </cc:Work>
    </rdf:RDF>
  </metadata>
  <g
     inkscape:label="Layer 1"
     inkscape:groupmode="layer"
     id="layer1">
    <image
       y="12.548175"
       x="-938.54156"
       id="image2383"
       height="497.28571"
       width="667.28571"
       sodipodi:absref="F:\moa-pics\moa3.gif"
       xlink:href="F:\moa-pics\moa3.gif" />
    <path
       style="fill:#000000;fill-opacity:1;fill-rule:evenodd;stroke:#000000;stroke-width:1px;stroke-linecap:butt;stroke-linejoin:miter;stroke-opacity:1"
       d="m 496.73039,226.02862 c -3.66392,2.25987 -6.90585,5.96951 -9.41719,9.63848 -3.70852,5.41801 -7.38108,11.35361 -9.24239,17.62246 -2.47821,8.34658 -3.35516,17.44503 -3.77617,26.22383 -0.39487,8.23358 0.74385,16.55193 1.32852,24.81329 0.77119,10.89685 3.55409,21.96097 2.73906,32.66133 -0.58614,7.69521 -3.69653,15.47743 -6.94258,22.52538 -2.30434,5.00329 -5.67316,10.02133 -9.7086,13.62833 -3.36795,3.01039 -8.09404,5.38466 -12.50158,6.22383 -4.53699,0.86382 -9.85333,0.33723 -14.33201,-1.11485 -7.08837,-2.29819 -13.36073,-7.29457 -20.36914,-10.13595 -7.27284,-2.94859 -14.78332,-5.77346 -22.47461,-7.23397 -11.19244,-2.12536 -22.7594,-2.83106 -34.17656,-3.52364 -8.05207,-0.48845 -16.21249,-0.69566 -24.23113,-0.0194 -7.79872,0.65768 -15.7633,1.69571 -23.22097,4.02118 -11.44276,3.56811 -23.49641,7.21254 -33.48032,13.65958 -12.29248,7.93779 -21.79387,20.26227 -33.34883,29.49492 -4.32174,3.45316 -13.02831,7.00145 -14.28125,8.5625 -0.65331,0.81395 9.68487,-2.61635 8.5625,-1.4375 -3.63804,3.82115 -21.16969,13.99644 -22.84375,16.4375 -0.94052,1.37144 15.81734,-6.7953 15,-5 -1.56808,3.44428 -19.48057,17.54595 -22.15625,20.71875 -1.13682,1.34803 8.90889,-5.80334 8.69844,-3.87325 -0.47197,4.32863 -8.57286,13.4924 -10.74571,22.64942 -2.34798,9.89506 1.0847,19.13509 -1.55409,28.69845 -1.67878,6.08416 -12.15625,14.80079 -12.15625,15.71875 0,0.7487 9.91866,-6.96141 12.91386,-8.19337 1.05688,-0.43471 0.49357,3.89534 0,5.71875 -1.89185,6.98909 -8.37742,19.7386 -7.15625,20.71875 1.15383,0.9261 12.44841,-15.25774 14.28125,-15 1.5005,0.21101 -5.38403,11.30807 -4.28125,16.40625 1.52222,7.03724 8.0228,15.03443 12.15625,20 0.62696,0.75318 1.35149,-3.41408 2.125,-2.84375 3.74732,2.763 8.19084,11.30271 11.4375,12.84375 1.27417,0.60479 0.84943,-6.85665 2.125,-6.40625 2.76609,0.97668 6.66669,7.12502 10,10.6875 1e-5,1e-5 2.75413,-11.02125 3.03125,-15.125 0.035,-0.51792 -0.35268,-0.88839 -0.15625,-1.28125 0.35105,-0.7021 -0.28777,0.0528 0.15625,1.28125 1.07894,2.98501 10.06888,9.07791 11.28125,6.5625 1.60794,-3.33615 -1.25297,-12.51851 0,-12.84375 1.2956,-0.3363 5.74366,10.92641 7.6457,10.85914 1.66828,-0.059 1.37451,-8.47106 3.06524,-11.23795 0.52112,-0.85282 2.05698,1.22446 2.30762,0.37881 0.69988,-2.36141 0.13701,-10.40693 0.54394,-10 0.54099,0.54099 2.11284,11.23926 3.5625,12.84375 0.69617,0.77051 1.4448,-5.24375 2.875,-5.71875 1.42396,-0.47292 4.86074,3.46407 5.6875,2.875 0.8399,-0.59843 -1.74463,-5.80507 -0.6875,-6.4375 1.32828,-0.79465 6.56379,3.43621 7.84375,2.15625 1.81379,-1.81379 -0.93458,-10.32186 -0.0777,-11.18496 0.57024,-0.5744 2.7824,6.66102 4.35898,6.87246 1.99634,0.26773 6.60079,-7.72579 7.875,-5.6875 4.68412,7.49296 8.95195,22.70085 10,34.28125 0.84778,9.36751 -3.334,19.0328 -4.3125,28.5625 -0.21942,2.13696 0.015,4.45383 0.71875,6.4375 0.73378,2.06841 2.90401,3.59613 3.59375,5.71875 2.40401,7.39821 4.62681,15.10654 5.6875,22.84375 1.2884,9.3982 1.35977,19.0524 1.35977,28.5625 0,4.77115 0.10005,9.84111 -1.35977,14.28125 -1.59507,4.85153 -6.62539,8.84982 -7.80489,13.59375 -0.71633,2.88107 1.21707,8.37268 2.11739,9.28125 0.51381,0.51851 0.90388,-3.72117 2.125,-5 3.29971,-3.45568 7.44694,-6.42682 11.4375,-9.20352 1.48861,-1.0358 3.43904,-2.51121 5,-2.23398 2.01196,0.35734 3.78838,2.79304 5.71875,4.13769 2.09834,1.46166 4.47593,2.58936 6.36739,4.28125 2.30561,2.06234 3.85698,5.0212 6.22382,6.98144 1.89247,1.56737 4.28859,2.84996 6.5541,3.60137 0.91242,0.30263 2.71554,0.32498 2.97969,-0.43925 0.68123,-1.97086 1.09109,-5.65042 -0.14356,-7.76602 -2.86528,-4.90972 -12.19227,-10.43239 -12.15625,-13.30996 0.0248,-1.97998 8.22536,-1.12378 12.33867,-1.26269 2.11826,-0.0715 5.09544,1.37764 6.35605,0.63134 0.87227,-0.51639 0.615,-3.18024 0.0426,-4.41942 -0.74334,-1.60922 -2.24788,-3.72214 -3.98985,-4.12579 -4.19299,-0.97161 -9.43294,0.8454 -13.81504,0 -2.59934,-0.50147 -5.42828,-2.01312 -7.12928,-4.04061 -3.41951,-4.07583 -7.38088,-8.97207 -8.23223,-14.26935 -2.08163,-12.95231 -1.65436,-16.65379 -2.1131,-25 -0.39205,-7.13295 -0.34572,-14.29113 -0.43925,-21.4375 -0.0529,-4.04113 0.62088,-8.22918 0,-12.125 -0.32704,-2.0521 -2.91097,-3.65081 -2.84375,-5.71875 0.28245,-8.68967 1.7358,-17.90562 3.89277,-26.55409 2.89088,-11.59111 3.25364,-29.72226 12.26094,-35.93243 12.09125,-8.33642 24.1515,-11.44411 37.83614,-16.11484 11.98543,-4.09077 22.43583,-6.35717 31.7289,-12.11739 7.61318,-4.71895 13.57448,-12.13698 20,-18.5625 4.76198,-4.76198 8.30409,-10.92004 13.5625,-15 6.40825,-4.97212 15.92518,-6.36651 21.4375,-12.15625 8.76893,-9.21026 16.18493,-21.0559 21.40625,-32.84375 5.00785,-11.3059 7.84799,-24.08352 9.28125,-36.4375 1.66049,-14.31268 1.16497,-29.14531 0,-43.5625 -0.97045,-12.00989 -5.09202,-23.72927 -6.40625,-35.71875 -1.06077,-9.67719 -2.56985,-20.16762 -0.71875,-29.28125 1.00307,-4.93846 5.26859,-9.77962 9.28125,-12.875 3.95805,-3.05326 9.5843,-4.62316 14.63087,-5.57091 4.97934,-0.93513 10.504,0.7464 15.44686,-0.0777 2.39724,-0.3997 5.17798,-2.04065 6.57344,-3.59374 0.56457,-0.62835 -0.0807,-2.19007 -0.69336,-2.95059 -1.78571,-2.21669 -4.09202,-4.41256 -6.50175,-5.98104 -1.42617,-0.9283 -3.5434,-0.64062 -5.00595,-1.50928 -1.79057,-1.0635 -2.94234,-3.23815 -4.75341,-4.2872 -2.05772,-1.19193 -4.49128,-2.01066 -6.85295,-2.43576 -3.0844,-0.55518 -6.35633,-0.75499 -9.48525,-0.50507 -3.19458,0.25516 -6.84836,0.3939 -9.48525,2.0203 z m -145.16291,430.0928 c 2.66962,0.76624 4.23698,1.25688 6.81633,1.14945 1.98952,-0.0829 13.04458,2.33425 13.31886,1.22607 0.22349,-0.90295 -8.57601,-5.00662 -10.20573,-5.46236 -3.38543,-0.94671 -1.2094,-0.041 -4.03615,-1.15569 -1.26652,-0.49942 -1.96225,-1.11653 -3.67814,-2.31245 -2.87923,-2.00672 -3.05458,-2.95568 -1.99247,-2.78519 1.64062,0.26336 -0.32024,-0.0486 4.34173,2.52424 5.13731,2.83513 11.00645,3.97271 16.84182,4.99423 1.9839,0.34729 4.15528,-1.20754 6.08027,-0.93243 1.60907,0.22997 3.89797,2.91273 4.52189,2.44766 0.64776,-0.48284 0.13987,-3.87626 -0.70685,-5.2914 -0.93776,-1.56728 -2.87014,-3.01234 -4.64658,-3.65586 -2.16307,-0.78357 -4.86076,-0.0731 -7.17195,-0.6254 -2.571,-0.61445 -5.19762,-1.54397 -7.47462,-2.875 -2.47945,-1.44937 -7.38931,-4.67188 -6.79473,-5.46621 0.73537,-0.98242 7.20358,0.33829 10.78458,0.13595 3.6386,-0.2056 9.44159,-0.19733 10.87421,-1.35978 0.76504,-0.62076 -2.51999,-3.40118 -4.28125,-3.98984 -3.26412,-1.09096 -7.22253,-0.52773 -10.7949,-1.04902 -2.95079,-0.43059 -6.00354,-0.78311 -8.77459,-1.80663 -2.91586,-1.077 -6.55044,-2.18498 -8.28616,-4.49493 -1.94834,-2.59292 -2.8153,-6.76382 -2.76602,-10.21367 0.0867,-6.07099 1.37161,-12.48363 3.17401,-18.34883 1.26544,-4.11788 4.07874,-7.70403 6.02951,-11.60041 1.99123,-3.97719 4.42788,-7.85614 5.79648,-12.0203 0.8161,-2.4831 -0.0263,-5.41188 0.75761,-7.92148 1.90194,-6.08922 4.32206,-12.19445 7.29981,-17.875 3.87922,-7.40024 8.60036,-14.40898 13.2711,-21.36739 6.49482,-9.67589 15.58661,-20.99703 18.45781,-26.01015 -6.33005,2.70291 -23.9146,7.63668 -35.14786,12.51349 -5.03842,2.18739 -5.49667,1.59945 -11.89942,5.39609 -0.25747,3.59777 -0.93089,8.7442 -1.01015,12.74651 -0.0891,4.49938 1.30228,9.1783 0.50507,13.51618 -0.8759,4.76602 -2.98527,9.62246 -5.52442,13.79553 -2.51013,4.12537 -8.19515,6.71646 -9.62342,11.09978 -1.90383,5.84281 1.96849,10.77891 1.89998,17.30576 -0.0959,9.13511 -0.97941,20.56043 -0.62539,29.68012 0.32462,8.36236 0.82343,16.88198 2.15625,25.03887 0.29498,1.8053 1.67352,5.59986 2.72716,7.12055 2.12429,3.06592 2.86694,3.51799 5.54394,5.88167 1.17437,1.03692 2.66627,1.59489 4.24238,2.04727 z M 508.04464,229.85714 c 1.87265,-0.26112 4.43452,-0.33029 6.0625,0.53125 1.40327,0.74263 3.12371,2.97595 3.03125,4.28125 -0.0846,1.1947 -2.2016,2.91863 -3.5625,3.21875 -1.37868,0.30405 -3.52988,-0.41947 -4.65625,-1.40625 -1.31113,-1.14863 -2.45169,-3.45122 -2.65625,-5 -0.0871,-0.65956 1.03932,-1.52154 1.78125,-1.625 z"
       id="path2386"
       sodipodi:nodetypes="ssssssssssssssssssssscssscssssssssssssssssssssssssssssssssssssssssssssssssssssssssssssssssssssssssssssssssssssssssssssssssssssssssssssscscsssssssssssssssss"
       inkscape:export-xdpi="375.89999"
       inkscape:export-ydpi="375.89999"
       inkscape:export-filename="F:\MOA-TEST.png"
       inkscape:connector-curvature="0" />
  </g>
</svg>
