<?xml version="1.0" encoding="UTF-8" standalone="no"?>
<!-- Created with Inkscape (http://www.inkscape.org/) -->
<svg
   xmlns:dc="http://purl.org/dc/elements/1.1/"
   xmlns:cc="http://web.resource.org/cc/"
   xmlns:rdf="http://www.w3.org/1999/02/22-rdf-syntax-ns#"
   xmlns:svg="http://www.w3.org/2000/svg"
   xmlns="http://www.w3.org/2000/svg"
   xmlns:xlink="http://www.w3.org/1999/xlink"
   xmlns:sodipodi="http://sodipodi.sourceforge.net/DTD/sodipodi-0.dtd"
   xmlns:inkscape="http://www.inkscape.org/namespaces/inkscape"
   width="744.09448819"
   height="1052.3622047"
   id="svg2"
   sodipodi:version="0.32"
   inkscape:version="0.45.1"
   sodipodi:docbase="F:\htdocs\gallery\media\source"
   sodipodi:docname="moa-vector.svg"
   inkscape:output_extension="org.inkscape.output.svg.inkscape">
  <defs
     id="defs4" />
  <sodipodi:namedview
     id="base"
     pagecolor="#ffffff"
     bordercolor="#666666"
     borderopacity="1.0"
     gridtolerance="10000"
     guidetolerance="10"
     objecttolerance="10"
     inkscape:pageopacity="0.0"
     inkscape:pageshadow="2"
     inkscape:zoom="1.4"
     inkscape:cx="357.02464"
     inkscape:cy="604.6688"
     inkscape:document-units="px"
     inkscape:current-layer="layer1"
     inkscape:window-width="1280"
     inkscape:window-height="904"
     inkscape:window-x="-4"
     inkscape:window-y="-4" />
  <metadata
     id="metadata7">
    <rdf:RDF>
      <cc:Work
         rdf:about="">
        <dc:format>image/svg+xml</dc:format>
        <dc:type
           rdf:resource="http://purl.org/dc/dcmitype/StillImage" />
      </cc:Work>
    </rdf:RDF>
  </metadata>
  <g
     inkscape:label="Layer 1"
     inkscape:groupmode="layer"
     id="layer1">
    <image
       y="12.548175"
       x="-938.54156"
       id="image2383"
       height="497.28571"
       width="667.28571"
       sodipodi:absref="F:\moa-pics\moa3.gif"
       xlink:href="F:\moa-pics\moa3.gif" />
    <path
       style="fill:#000000;fill-opacity:1;fill-rule:evenodd;stroke:#000000;stroke-width:1px;stroke-linecap:butt;stroke-linejoin:miter;stroke-opacity:1"
       d="M 496.73039,226.02862 C 493.06647,228.28849 489.82454,231.99813 487.3132,235.6671 C 483.60468,241.08511 479.93212,247.02071 478.07081,253.28956 C 475.5926,261.63614 474.71565,270.73459 474.29464,279.51339 C 473.89977,287.74697 475.03849,296.06532 475.62316,304.32668 C 476.39435,315.22353 479.17725,326.28765 478.36222,336.98801 C 477.77608,344.68322 474.66569,352.46544 471.41964,359.51339 C 469.1153,364.51668 465.74648,369.53472 461.71104,373.14172 C 458.34309,376.15211 453.617,378.52638 449.20946,379.36555 C 444.67247,380.22937 439.35613,379.70278 434.87745,378.2507 C 427.78908,375.95251 421.51672,370.95613 414.50831,368.11475 C 407.23547,365.16616 399.72499,362.34129 392.0337,360.88078 C 380.84126,358.75542 369.2743,358.04972 357.85714,357.35714 C 349.80507,356.86869 341.64465,356.66148 333.62601,357.33771 C 325.82729,357.99539 317.86271,359.03342 310.40504,361.35889 C 298.96228,364.927 286.90863,368.57143 276.92472,375.01847 C 264.63224,382.95626 255.13085,395.28074 243.57589,404.51339 C 239.25415,407.96655 230.54758,411.51484 229.29464,413.07589 C 228.64133,413.88984 238.97951,410.45954 237.85714,411.63839 C 234.2191,415.45954 216.68745,425.63483 215.01339,428.07589 C 214.07287,429.44733 230.83073,421.28059 230.01339,423.07589 C 228.44531,426.52017 210.53282,440.62184 207.85714,443.79464 C 206.72032,445.14267 216.76603,437.9913 216.55558,439.92139 C 216.08361,444.25002 207.98272,453.41379 205.80987,462.57081 C 203.46189,472.46587 206.89457,481.7059 204.25578,491.26926 C 202.577,497.35342 192.09953,506.07005 192.09953,506.98801 C 192.09953,507.73671 202.01819,500.0266 205.01339,498.79464 C 206.07027,498.35993 205.50696,502.68998 205.01339,504.51339 C 203.12154,511.50248 196.63597,524.25199 197.85714,525.23214 C 199.01097,526.15824 210.30555,509.9744 212.13839,510.23214 C 213.63889,510.44315 206.75436,521.54021 207.85714,526.63839 C 209.37936,533.67563 215.87994,541.67282 220.01339,546.63839 C 220.64035,547.39157 221.36488,543.22431 222.13839,543.79464 C 225.88571,546.55764 230.32923,555.09735 233.57589,556.63839 C 234.85006,557.24318 234.42532,549.78174 235.70089,550.23214 C 238.46698,551.20882 242.36758,557.35716 245.70089,560.91964 C 245.7009,560.91965 248.45502,549.89839 248.73214,545.79464 C 248.76712,545.27672 248.37946,544.90625 248.57589,544.51339 C 248.92694,543.81129 248.28812,544.56621 248.73214,545.79464 C 249.81108,548.77965 258.80102,554.87255 260.01339,552.35714 C 261.62133,549.02099 258.76042,539.83863 260.01339,539.51339 C 261.30899,539.17709 265.75705,550.4398 267.65909,550.37253 C 269.32737,550.31353 269.0336,541.90147 270.72433,539.13458 C 271.24545,538.28176 272.78131,540.35904 273.03195,539.51339 C 273.73183,537.15198 273.16896,529.10646 273.57589,529.51339 C 274.11688,530.05438 275.68873,540.75265 277.13839,542.35714 C 277.83456,543.12765 278.58319,537.11339 280.01339,536.63839 C 281.43735,536.16547 284.87413,540.10246 285.70089,539.51339 C 286.54079,538.91496 283.95626,533.70832 285.01339,533.07589 C 286.34167,532.28124 291.57718,536.5121 292.85714,535.23214 C 294.67093,533.41835 291.92256,524.91028 292.77941,524.04718 C 293.34965,523.47278 295.56181,530.7082 297.13839,530.91964 C 299.13473,531.18737 303.73918,523.19385 305.01339,525.23214 C 309.69751,532.7251 313.96534,547.93299 315.01339,559.51339 C 315.86117,568.8809 311.67939,578.54619 310.70089,588.07589 C 310.48147,590.21285 310.71592,592.52972 311.41964,594.51339 C 312.15342,596.5818 314.32365,598.10952 315.01339,600.23214 C 317.4174,607.63035 319.6402,615.33868 320.70089,623.07589 C 321.98929,632.47409 322.06066,642.12829 322.06066,651.63839 C 322.06066,656.40954 322.16071,661.4795 320.70089,665.91964 C 319.10582,670.77117 314.0755,674.76946 312.896,679.51339 C 312.17967,682.39446 314.11307,687.88607 315.01339,688.79464 C 315.5272,689.31315 315.91727,685.07347 317.13839,683.79464 C 320.4381,680.33896 324.58533,677.36782 328.57589,674.59112 C 330.0645,673.55532 332.01493,672.07991 333.57589,672.35714 C 335.58785,672.71448 337.36427,675.15018 339.29464,676.49483 C 341.39298,677.95649 343.77057,679.08419 345.66203,680.77608 C 347.96764,682.83842 349.51901,685.79728 351.88585,687.75752 C 353.77832,689.32489 356.17444,690.60748 358.43995,691.35889 C 359.35237,691.66152 361.15549,691.68387 361.41964,690.91964 C 362.10087,688.94878 362.51073,685.26922 361.27608,683.15362 C 358.4108,678.2439 349.08381,672.72123 349.11983,669.84366 C 349.14462,667.86368 357.34519,668.71988 361.4585,668.58097 C 363.57676,668.50943 366.55394,669.95861 367.81455,669.21231 C 368.68682,668.69592 368.42955,666.03207 367.85714,664.79289 C 367.1138,663.18367 365.60926,661.07075 363.86729,660.6671 C 359.6743,659.69549 354.43435,661.5125 350.05225,660.6671 C 347.45291,660.16563 344.62397,658.65398 342.92297,656.62649 C 339.50346,652.55066 335.54209,647.65442 334.69074,642.35714 C 332.60911,629.40483 333.03638,625.70335 332.57764,617.35714 C 332.18559,610.22419 332.23192,603.06601 332.13839,595.91964 C 332.0855,591.87851 332.75927,587.69046 332.13839,583.79464 C 331.81135,581.74254 329.22742,580.14383 329.29464,578.07589 C 329.57709,569.38622 331.03044,560.17027 333.18741,551.5218 C 336.07829,539.93069 336.44105,521.79954 345.44835,515.58937 C 357.5396,507.25295 369.59985,504.14526 383.28449,499.47453 C 395.26992,495.38376 405.72032,493.11736 415.01339,487.35714 C 422.62657,482.63819 428.58787,475.22016 435.01339,468.79464 C 439.77537,464.03266 443.31748,457.8746 448.57589,453.79464 C 454.98414,448.82252 464.50107,447.42813 470.01339,441.63839 C 478.78232,432.42813 486.19832,420.58249 491.41964,408.79464 C 496.42749,397.48874 499.26763,384.71112 500.70089,372.35714 C 502.36138,358.04446 501.86586,343.21183 500.70089,328.79464 C 499.73044,316.78475 495.60887,305.06537 494.29464,293.07589 C 493.23387,283.3987 491.72479,272.90827 493.57589,263.79464 C 494.57896,258.85618 498.84448,254.01502 502.85714,250.91964 C 506.81519,247.86638 512.44144,246.29648 517.48801,245.34873 C 522.46735,244.4136 527.99201,246.09513 532.93487,245.271 C 535.33211,244.8713 538.11285,243.23035 539.50831,241.67726 C 540.07288,241.04891 539.42761,239.48719 538.81495,238.72667 C 537.02924,236.50998 534.72293,234.31411 532.3132,232.74563 C 530.88703,231.81733 528.7698,232.10501 527.30725,231.23635 C 525.51668,230.17285 524.36491,227.9982 522.55384,226.94915 C 520.49612,225.75722 518.06256,224.93849 515.70089,224.51339 C 512.61649,223.95821 509.34456,223.7584 506.21564,224.00832 C 503.02106,224.26348 499.36728,224.40222 496.73039,226.02862 z M 351.56748,656.12142 C 354.2371,656.88766 355.71517,656.57473 358.29452,656.4673 C 360.28404,656.38443 364.99982,656.65869 365.2741,655.55051 C 365.49759,654.64756 362.68023,652.90996 361.05051,652.45422 C 357.66508,651.50751 353.45718,652.41319 350.22865,651.34318 C 348.93634,650.91488 348.13247,649.2445 347.48801,647.9593 C 345.91488,644.82207 342.51378,637.9054 343.57589,638.07589 C 345.21651,638.33925 350.93423,646.68804 355.5962,649.26085 C 360.73351,652.09598 367.13836,653.2782 372.97373,654.29972 C 374.95763,654.64701 377.12901,653.09218 379.054,653.36729 C 380.66307,653.59726 382.95197,656.28002 383.57589,655.81495 C 384.22365,655.33211 383.71576,651.93869 382.86904,650.52355 C 381.93128,648.95627 379.9989,647.51121 378.22246,646.86769 C 376.05939,646.08412 373.3617,646.79464 371.05051,646.24229 C 368.47951,645.62784 365.85289,644.69832 363.57589,643.36729 C 361.09644,641.91792 356.18658,638.69541 356.78116,637.90108 C 357.51653,636.91866 363.98474,638.23937 367.56574,638.03703 C 371.20434,637.83143 377.00733,637.8397 378.43995,636.67725 C 379.20499,636.05649 375.91996,633.27607 374.1587,632.68741 C 370.89458,631.59645 366.93617,632.15968 363.3638,631.63839 C 360.41301,631.2078 357.36026,630.85528 354.58921,629.83176 C 351.67335,628.75476 348.03877,627.64678 346.30305,625.33683 C 344.35471,622.74391 343.48775,618.57301 343.53703,615.12316 C 343.62374,609.05217 344.90864,602.63953 346.71104,596.77433 C 347.97648,592.65645 350.78978,589.0703 352.74055,585.17392 C 354.73178,581.19673 357.16843,577.31778 358.53703,573.15362 C 359.35313,570.67052 358.51077,567.74174 359.29464,565.23214 C 361.19658,559.14292 363.6167,553.03769 366.59445,547.35714 C 370.47367,539.9569 375.19481,532.94816 379.86555,525.98975 C 386.36037,516.31386 395.45216,504.99272 398.32336,499.9796 C 391.99331,502.68251 374.40876,507.61628 363.1755,512.49309 C 358.13708,514.68048 357.67883,514.09254 351.27608,517.88918 C 351.01861,521.48695 350.34519,526.63338 350.26593,530.63569 C 350.17683,535.13507 351.56821,539.81399 350.771,544.15187 C 349.8951,548.91789 347.78573,553.77433 345.24658,557.9474 C 342.73645,562.07277 337.05143,564.66386 335.62316,569.04718 C 333.71933,574.88999 337.59165,579.82609 337.52314,586.35294 C 337.42725,595.48805 336.54373,606.91337 336.89775,616.03306 C 337.22237,624.39542 337.72118,632.91504 339.054,641.07193 C 339.34898,642.87723 340.72752,646.67179 341.78116,648.19248 C 343.90545,651.2584 344.6481,651.71047 347.3251,654.07415 C 348.49947,655.11107 349.99137,655.66904 351.56748,656.12142 z M 508.04464,229.85714 C 509.91729,229.59602 512.47916,229.52685 514.10714,230.38839 C 515.51041,231.13102 517.23085,233.36434 517.13839,234.66964 C 517.05377,235.86434 514.93679,237.58827 513.57589,237.88839 C 512.19721,238.19244 510.04601,237.46892 508.91964,236.48214 C 507.60851,235.33351 506.46795,233.03092 506.26339,231.48214 C 506.17628,230.82258 507.30271,229.9606 508.04464,229.85714 z "
       id="path2386"
       sodipodi:nodetypes="csssssssssssssssssssscssscsssssssssssssssssssssssssssssssssssssssssssssssssssssssssssssssssssssssssssssssscsssssssssssssssssssssssssssscscsssssssssscssssss"
       inkscape:export-xdpi="375.89999"
       inkscape:export-ydpi="375.89999"
       inkscape:export-filename="F:\MOA-TEST.png" />
  </g>
</svg>
